<mxfile host="app.diagrams.net" modified="2023-05-19T15:12:22.874Z" agent="Mozilla/5.0 (X11; Linux x86_64) AppleWebKit/537.36 (KHTML, like Gecko) Chrome/113.0.0.0 Safari/537.36" etag="_m0_7cwFkAEx639biH8G" version="21.2.9" type="device">
  <diagram name="Page-1" id="gbPsVQ9eqNp_veV7HC2S">
    <mxGraphModel dx="1242" dy="795" grid="1" gridSize="10" guides="1" tooltips="1" connect="1" arrows="1" fold="1" page="1" pageScale="1" pageWidth="850" pageHeight="1100" math="0" shadow="0">
      <root>
        <mxCell id="0" />
        <mxCell id="1" parent="0" />
        <mxCell id="xG2CsZlUys-w5u9laEx5-3" style="edgeStyle=orthogonalEdgeStyle;rounded=0;orthogonalLoop=1;jettySize=auto;html=1;entryX=0.5;entryY=1;entryDx=0;entryDy=0;" edge="1" parent="1" source="1wdZAOMdGytCiCozPOUB-2" target="1wdZAOMdGytCiCozPOUB-4">
          <mxGeometry relative="1" as="geometry">
            <Array as="points">
              <mxPoint x="295" y="540" />
              <mxPoint x="425" y="540" />
            </Array>
          </mxGeometry>
        </mxCell>
        <mxCell id="1wdZAOMdGytCiCozPOUB-2" value="&lt;font style=&quot;font-size: 12px;&quot;&gt;Н_ТИПЫ ВЕДОМОСТЕЙ&lt;/font&gt;" style="rounded=0;whiteSpace=wrap;html=1;" parent="1" vertex="1">
          <mxGeometry x="210" y="680" width="170" height="80" as="geometry" />
        </mxCell>
        <mxCell id="xG2CsZlUys-w5u9laEx5-1" style="edgeStyle=orthogonalEdgeStyle;rounded=0;orthogonalLoop=1;jettySize=auto;html=1;entryX=0.5;entryY=1;entryDx=0;entryDy=0;" edge="1" parent="1" source="1wdZAOMdGytCiCozPOUB-3" target="1wdZAOMdGytCiCozPOUB-9">
          <mxGeometry relative="1" as="geometry" />
        </mxCell>
        <mxCell id="1wdZAOMdGytCiCozPOUB-3" value="&lt;font style=&quot;font-size: 12px;&quot;&gt;Н_ВЕДОМОСТИ&lt;/font&gt;" style="rounded=0;whiteSpace=wrap;html=1;" parent="1" vertex="1">
          <mxGeometry x="490" y="680" width="170" height="80" as="geometry" />
        </mxCell>
        <mxCell id="xG2CsZlUys-w5u9laEx5-4" style="edgeStyle=orthogonalEdgeStyle;rounded=0;orthogonalLoop=1;jettySize=auto;html=1;entryX=0.5;entryY=1;entryDx=0;entryDy=0;" edge="1" parent="1" source="1wdZAOMdGytCiCozPOUB-4" target="1wdZAOMdGytCiCozPOUB-7">
          <mxGeometry relative="1" as="geometry" />
        </mxCell>
        <mxCell id="1wdZAOMdGytCiCozPOUB-4" value="&lt;font style=&quot;font-size: 24px;&quot;&gt;⋈&lt;/font&gt;&lt;sub style=&quot;&quot;&gt;&lt;font style=&quot;font-size: 12px;&quot;&gt;Н_ТИПЫ_ВЕДОМОСТЕЙ.ИД=Н_ВЕДОМОСТИ.ТВ_ИД&lt;/font&gt;&lt;/sub&gt;" style="rounded=0;whiteSpace=wrap;html=1;" parent="1" vertex="1">
          <mxGeometry x="240" y="440" width="370" height="80" as="geometry" />
        </mxCell>
        <mxCell id="xG2CsZlUys-w5u9laEx5-5" style="edgeStyle=orthogonalEdgeStyle;rounded=0;orthogonalLoop=1;jettySize=auto;html=1;entryX=0.5;entryY=1;entryDx=0;entryDy=0;" edge="1" parent="1" source="1wdZAOMdGytCiCozPOUB-7" target="1wdZAOMdGytCiCozPOUB-12">
          <mxGeometry relative="1" as="geometry" />
        </mxCell>
        <mxCell id="1wdZAOMdGytCiCozPOUB-7" value="&lt;font style=&quot;font-size: 24px;&quot;&gt;σ&lt;/font&gt;&lt;sub style=&quot;&quot;&gt;&lt;font style=&quot;font-size: 12px;&quot;&gt;Н_ТИПЫ_ВЕДОМОСТЕЙ.НАИМЕНОВАНИЕ&amp;lt;&#39;Ведомость&#39;&lt;/font&gt;&lt;/sub&gt;" style="rounded=0;whiteSpace=wrap;html=1;" parent="1" vertex="1">
          <mxGeometry x="240" y="320" width="370" height="80" as="geometry" />
        </mxCell>
        <mxCell id="xG2CsZlUys-w5u9laEx5-2" style="edgeStyle=orthogonalEdgeStyle;rounded=0;orthogonalLoop=1;jettySize=auto;html=1;entryX=0.5;entryY=1;entryDx=0;entryDy=0;" edge="1" parent="1" source="1wdZAOMdGytCiCozPOUB-9" target="1wdZAOMdGytCiCozPOUB-4">
          <mxGeometry relative="1" as="geometry" />
        </mxCell>
        <mxCell id="1wdZAOMdGytCiCozPOUB-9" value="&lt;font style=&quot;font-size: 24px;&quot;&gt;σ&lt;/font&gt;&lt;sub style=&quot;&quot;&gt;&lt;font style=&quot;font-size: 12px;&quot;&gt;Н_ВЕДОМОСТИ.ДАТА=&#39;2022-06-08&#39;&lt;/font&gt;&lt;/sub&gt;" style="rounded=0;whiteSpace=wrap;html=1;" parent="1" vertex="1">
          <mxGeometry x="390" y="560" width="370" height="80" as="geometry" />
        </mxCell>
        <mxCell id="1wdZAOMdGytCiCozPOUB-12" value="&lt;font style=&quot;font-size: 24px;&quot;&gt;π&lt;/font&gt;&lt;sub style=&quot;&quot;&gt;&lt;font style=&quot;font-size: 12px;&quot;&gt;Н_ТИПЫ_ВЕДОМОСТЕЙ.ИД, Н_ВЕДОМОСТИ.ИД&lt;/font&gt;&lt;/sub&gt;" style="rounded=0;whiteSpace=wrap;html=1;" parent="1" vertex="1">
          <mxGeometry x="240" y="200" width="370" height="80" as="geometry" />
        </mxCell>
      </root>
    </mxGraphModel>
  </diagram>
</mxfile>
